# xmcd
#
# Track frame offsets: 
#        150
#        48505
#        79300
#        99177
#        118025
#        153042
#        169527
#        227377
#        258330
#        279317
#
# Disc length: 4058 seconds
#
# Revision: 1
# Processed by: cddbd v1.5.2PL0 Copyright (c) Steve Scherf et al.
# Submitted via: ExactAudioCopyFreeDBPlugin 1.0
#
DISCID=6d0fd80a
DTITLE=Eric Clapton - Lost Club Shows [CD 2)
DYEAR=2002
DGENRE=Blues
TTITLE0=Double Trouble
TTITLE1=Before You Accuse Me
TTITLE2=Someday After a While
TTITLE3=Tore Down
TTITLE4=Have You Ever Loved A Woman
TTITLE5=Crosscut saw
TTITLE6=Five Long Years
TTITLE7=Crossroads
TTITLE8=Got My Mojo Workin'
TTITLE9=Ain't Nobody's Business
EXTD=
EXTT0=
EXTT1=
EXTT2=
EXTT3=
EXTT4=
EXTT5=
EXTT6=
EXTT7=
EXTT8=
EXTT9=
PLAYORDER=
